<svg width="667" height="327" viewBox="0 0 667 327" fill="none" xmlns="http://www.w3.org/2000/svg">
<path d="M494 182L493.51 179.549L494 182ZM0.511873 322.484C-0.325226 323.582 -0.113713 325.151 0.984299 325.988C2.08231 326.825 3.65103 326.614 4.48813 325.516L0.511873 322.484ZM7.54694 321.531C8.39153 320.439 8.19077 318.869 7.09851 318.024C6.00626 317.18 4.43613 317.381 3.59153 318.473L7.54694 321.531ZM15.8957 303.065C15.0154 304.128 15.164 305.704 16.2277 306.584C17.2914 307.465 18.8673 307.316 19.7476 306.252L15.8957 303.065ZM26.0097 298.842C26.9123 297.797 26.797 296.219 25.7522 295.316C24.7074 294.413 23.1287 294.529 22.2261 295.574L26.0097 298.842ZM35.5466 280.946C34.5874 281.939 34.615 283.522 35.6081 284.481C36.6013 285.44 38.184 285.413 39.1431 284.42L35.5466 280.946ZM46.0129 277.548C47.0069 276.59 47.0357 275.007 46.0773 274.014C45.1189 273.02 43.5363 272.991 42.5424 273.949L46.0129 277.548ZM57.3523 260.847C56.2761 261.712 56.1048 263.286 56.9697 264.362C57.8346 265.438 59.4083 265.609 60.4845 264.744L57.3523 260.847ZM68.1708 258.903C69.2932 258.098 69.5511 256.537 68.7469 255.414C67.9428 254.292 66.381 254.034 65.2587 254.838L68.1708 258.903ZM82.1563 244.25C80.9414 244.906 80.4885 246.423 81.1446 247.638C81.8008 248.852 83.3175 249.305 84.5323 248.649L82.1563 244.25ZM93.1626 244.352C94.4182 243.777 94.9706 242.294 94.3963 241.038C93.8221 239.783 92.3387 239.23 91.083 239.805L93.1626 244.352ZM109.671 232.685C108.354 233.101 107.624 234.505 108.04 235.822C108.456 237.138 109.861 237.868 111.177 237.452L109.671 232.685ZM120.472 234.784C121.808 234.436 122.61 233.071 122.262 231.735C121.915 230.399 120.55 229.597 119.213 229.945L120.472 234.784ZM138.551 225.774C137.192 226.016 136.285 227.313 136.527 228.673C136.768 230.032 138.066 230.939 139.425 230.697L138.551 225.774ZM149.032 229.136C150.398 228.932 151.34 227.661 151.137 226.295C150.933 224.929 149.661 223.987 148.296 224.19L149.032 229.136ZM167.93 221.681C166.558 221.833 165.568 223.068 165.72 224.441C165.872 225.813 167.107 226.803 168.479 226.651L167.93 221.681ZM178.135 225.644C179.509 225.508 180.513 224.284 180.377 222.91C180.242 221.536 179.018 220.532 177.644 220.668L178.135 225.644ZM197.244 218.88C195.869 218.998 194.849 220.209 194.967 221.584C195.084 222.96 196.295 223.98 197.67 223.862L197.244 218.88ZM207.413 223.045C208.789 222.931 209.812 221.723 209.698 220.347C209.585 218.971 208.377 217.948 207.001 218.062L207.413 223.045ZM226.645 216.454C225.269 216.567 224.245 217.774 224.358 219.15C224.471 220.526 225.678 221.55 227.054 221.438L226.645 216.454ZM236.7 220.641C238.076 220.526 239.098 219.317 238.983 217.941C238.868 216.565 237.66 215.543 236.284 215.658L236.7 220.641ZM255.827 213.978C254.452 214.1 253.436 215.314 253.559 216.689C253.681 218.065 254.895 219.08 256.27 218.958L255.827 213.978ZM266.094 218.067C267.469 217.94 268.48 216.722 268.353 215.347C268.225 213.972 267.008 212.961 265.633 213.088L266.094 218.067ZM285.15 211.202C283.776 211.341 282.775 212.567 282.913 213.941C283.052 215.314 284.278 216.315 285.652 216.177L285.15 211.202ZM295.355 215.176C296.728 215.031 297.724 213.8 297.579 212.427C297.434 211.054 296.203 210.058 294.83 210.203L295.355 215.176ZM314.294 208.059C312.922 208.216 311.938 209.456 312.096 210.828C312.254 212.199 313.493 213.184 314.865 213.026L314.294 208.059ZM324.776 211.861C326.147 211.697 327.125 210.452 326.96 209.081C326.796 207.71 325.551 206.732 324.18 206.897L324.776 211.861ZM343.525 204.481C342.156 204.658 341.19 205.913 341.368 207.282C341.545 208.651 342.799 209.617 344.169 209.439L343.525 204.481ZM353.933 208.147C355.301 207.963 356.261 206.704 356.076 205.335C355.892 203.967 354.633 203.007 353.265 203.192L353.933 208.147ZM372.739 200.471C371.373 200.668 370.425 201.936 370.623 203.303C370.821 204.669 372.089 205.617 373.455 205.419L372.739 200.471ZM383.05 204.009C384.415 203.805 385.357 202.532 385.153 201.167C384.949 199.801 383.677 198.86 382.311 199.064L383.05 204.009ZM401.857 196.05C400.493 196.266 399.563 197.547 399.78 198.911C399.997 200.275 401.278 201.204 402.642 200.987L401.857 196.05ZM412.143 199.455C413.505 199.233 414.429 197.947 414.207 196.585C413.984 195.222 412.699 194.298 411.336 194.521L412.143 199.455ZM430.86 191.239C429.5 191.474 428.587 192.767 428.822 194.128C429.057 195.488 430.35 196.401 431.711 196.166L430.86 191.239ZM441.191 194.508C442.55 194.268 443.457 192.97 443.217 191.611C442.976 190.251 441.679 189.344 440.319 189.585L441.191 194.508ZM459.783 186.055C458.426 186.307 457.529 187.612 457.781 188.969C458.034 190.327 459.338 191.223 460.696 190.971L459.783 186.055ZM470.196 189.187C471.553 188.93 472.444 187.621 472.186 186.265C471.929 184.908 470.621 184.017 469.264 184.275L470.196 189.187ZM488.576 180.53C487.222 180.798 486.341 182.114 486.609 183.468C486.877 184.823 488.193 185.703 489.547 185.435L488.576 180.53ZM499.254 183.516C500.61 183.255 501.497 181.944 501.236 180.588C500.974 179.232 499.663 178.345 498.308 178.606L499.254 183.516ZM517.297 175.183C515.936 175.413 515.019 176.704 515.25 178.065C515.48 179.426 516.771 180.343 518.132 180.113L517.297 175.183ZM527.609 178.546C528.971 178.325 529.897 177.041 529.677 175.678C529.456 174.315 528.172 173.389 526.809 173.61L527.609 178.546ZM545.826 170.575C544.463 170.794 543.535 172.077 543.755 173.441C543.974 174.804 545.257 175.731 546.62 175.512L545.826 170.575ZM556.138 173.941C557.499 173.708 558.414 172.417 558.182 171.056C557.95 169.695 556.658 168.78 555.297 169.012L556.138 173.941ZM574.039 165.406C572.692 165.707 571.843 167.043 572.144 168.391C572.445 169.738 573.782 170.587 575.129 170.286L574.039 165.406ZM584.615 167.938C585.947 167.571 586.729 166.195 586.362 164.864C585.996 163.533 584.619 162.751 583.288 163.117L584.615 167.938ZM600.996 156.798C599.743 157.378 599.198 158.864 599.779 160.117C600.359 161.37 601.845 161.915 603.098 161.335L600.996 156.798ZM611.832 156.655C613.007 155.93 613.371 154.389 612.645 153.214C611.919 152.04 610.379 151.676 609.204 152.402L611.832 156.655ZM623.475 140.618C622.542 141.636 622.61 143.217 623.627 144.151C624.645 145.084 626.226 145.016 627.16 143.999L623.475 140.618ZM633.366 136.295C634.164 135.168 633.898 133.608 632.772 132.809C631.645 132.011 630.085 132.277 629.286 133.403L633.366 136.295ZM638.508 117.046C637.94 118.304 638.499 119.785 639.758 120.353C641.016 120.921 642.497 120.362 643.065 119.103L638.508 117.046ZM646.766 110.076C647.248 108.782 646.589 107.343 645.295 106.861C644.001 106.379 642.562 107.037 642.08 108.331L646.766 110.076ZM647.772 90.2165C647.418 91.5509 648.212 92.9201 649.546 93.2748C650.881 93.6294 652.25 92.8352 652.605 91.5008L647.772 90.2165ZM654.936 82.0481C655.244 80.7022 654.403 79.3614 653.057 79.0533C651.711 78.7452 650.37 79.5865 650.062 80.9324L654.936 82.0481ZM653.807 62.2295C653.569 63.5895 654.478 64.8852 655.838 65.1236C657.198 65.362 658.494 64.4528 658.732 63.0928L653.807 62.2295ZM660.302 53.5814C660.514 52.2171 659.579 50.9393 658.215 50.7274C656.851 50.5155 655.573 51.4497 655.361 52.8141L660.302 53.5814ZM658.007 33.7564C657.837 35.1266 658.81 36.3753 660.18 36.5454C661.55 36.7155 662.799 35.7426 662.969 34.3724L658.007 33.7564ZM664.091 24.8619C664.244 23.4898 663.257 22.2528 661.884 22.0991C660.512 21.9454 659.275 22.933 659.122 24.3052L664.091 24.8619ZM661.067 5.18291C660.94 6.55776 661.952 7.77526 663.327 7.90227C664.702 8.02927 665.919 7.01768 666.046 5.64283L661.067 5.18291ZM4.48813 325.516C5.51524 324.168 6.53472 322.84 7.54694 321.531L3.59153 318.473C2.57212 319.791 1.54568 321.128 0.511873 322.484L4.48813 325.516ZM19.7476 306.252C21.8625 303.697 23.9486 301.228 26.0097 298.842L22.2261 295.574C20.1406 297.988 18.0317 300.484 15.8957 303.065L19.7476 306.252ZM39.1431 284.42C41.455 282.026 43.7429 279.737 46.0129 277.548L42.5424 273.949C40.2272 276.181 37.8973 278.512 35.5466 280.946L39.1431 284.42ZM60.4845 264.744C63.0502 262.682 65.6093 260.738 68.1708 258.903L65.2587 254.838C62.6195 256.729 59.9871 258.73 57.3523 260.847L60.4845 264.744ZM84.5323 248.649C87.3769 247.113 90.2496 245.684 93.1626 244.352L91.083 239.805C88.0705 241.182 85.0989 242.661 82.1563 244.25L84.5323 248.649ZM111.177 237.452C114.209 236.494 117.304 235.608 120.472 234.784L119.213 229.945C115.967 230.789 112.79 231.699 109.671 232.685L111.177 237.452ZM139.425 230.697C142.549 230.143 145.748 229.624 149.032 229.136L148.296 224.19C144.971 224.685 141.725 225.211 138.551 225.774L139.425 230.697ZM168.479 226.651C171.623 226.304 174.84 225.969 178.135 225.644L177.644 220.668C174.332 220.995 171.096 221.332 167.93 221.681L168.479 226.651ZM197.67 223.862C200.849 223.59 204.095 223.319 207.413 223.045L207.001 218.062C203.68 218.336 200.429 218.608 197.244 218.88L197.67 223.862ZM227.054 221.438C230.209 221.179 233.423 220.914 236.7 220.641L236.284 215.658C233.011 215.931 229.799 216.196 226.645 216.454L227.054 221.438ZM256.27 218.958C259.489 218.672 262.763 218.375 266.094 218.067L265.633 213.088C262.308 213.396 259.04 213.692 255.827 213.978L256.27 218.958ZM285.652 216.177C288.837 215.855 292.071 215.522 295.355 215.176L294.83 210.203C291.554 210.549 288.328 210.881 285.15 211.202L285.652 216.177ZM314.865 213.026C318.123 212.651 321.426 212.263 324.776 211.861L324.18 206.897C320.838 207.298 317.543 207.685 314.294 208.059L314.865 213.026ZM344.169 209.439C347.383 209.022 350.637 208.591 353.933 208.147L353.265 203.192C349.977 203.635 346.731 204.064 343.525 204.481L344.169 209.439ZM373.455 205.419C376.617 204.962 379.815 204.492 383.05 204.009L382.311 199.064C379.084 199.546 375.894 200.015 372.739 200.471L373.455 205.419ZM402.642 200.987C405.776 200.489 408.943 199.979 412.143 199.455L411.336 194.521C408.144 195.043 404.984 195.552 401.857 196.05L402.642 200.987ZM431.711 196.166C434.841 195.625 438.001 195.073 441.191 194.508L440.319 189.585C437.136 190.148 433.983 190.699 430.86 191.239L431.711 196.166ZM460.696 190.971C463.835 190.388 467.002 189.794 470.196 189.187L469.264 184.275C466.076 184.88 462.915 185.473 459.783 186.055L460.696 190.971ZM489.547 185.435C491.188 185.11 492.836 184.782 494.49 184.451L493.51 179.549C491.858 179.879 490.214 180.206 488.576 180.53L489.547 185.435ZM494.49 184.451C496.093 184.131 497.681 183.819 499.254 183.516L498.308 178.606C496.723 178.912 495.124 179.226 493.51 179.549L494.49 184.451ZM518.132 180.113C521.358 179.566 524.516 179.046 527.609 178.546L526.809 173.61C523.708 174.112 520.538 174.634 517.297 175.183L518.132 180.113ZM546.62 175.512C549.874 174.988 553.047 174.468 556.138 173.941L555.297 169.012C552.227 169.536 549.072 170.053 545.826 170.575L546.62 175.512ZM575.129 170.286C578.393 169.557 581.554 168.78 584.615 167.938L583.288 163.117C580.318 163.935 577.237 164.692 574.039 165.406L575.129 170.286ZM603.098 161.335C606.129 159.93 609.039 158.381 611.832 156.655L609.204 152.402C606.594 154.014 603.861 155.47 600.996 156.798L603.098 161.335ZM627.16 143.999C629.329 141.634 631.396 139.073 633.366 136.295L629.286 133.403C627.433 136.017 625.498 138.414 623.475 140.618L627.16 143.999ZM643.065 119.103C644.351 116.255 645.584 113.25 646.766 110.076L642.08 108.331C640.935 111.407 639.745 114.308 638.508 117.046L643.065 119.103ZM652.605 91.5008C653.41 88.4713 654.186 85.3222 654.936 82.0481L650.062 80.9324C649.324 84.154 648.562 87.2468 647.772 90.2165L652.605 91.5008ZM658.732 63.0928C659.272 60.0152 659.795 56.8458 660.302 53.5814L655.361 52.8141C654.859 56.0483 654.341 59.1857 653.807 62.2295L658.732 63.0928ZM662.969 34.3724C663.353 31.2765 663.727 28.1069 664.091 24.8619L659.122 24.3052C658.76 27.5314 658.389 30.6812 658.007 33.7564L662.969 34.3724ZM666.046 5.64283C666.196 4.01852 666.344 2.37748 666.49 0.719534L661.51 0.280466C661.364 1.93162 661.217 3.56571 661.067 5.18291L666.046 5.64283Z" fill="white"/>
</svg>
